Simulation
nRows=20
nColumns=15
endheader
time  TH_x TH_y TH_z SC_y  SC_z  SC_x  AC_y  AC_z  AC_x  GH_y  GH_z  GH_yy  EL_x  PS_y
5.362  0.000000  0.000000  0.000000  -26.184203134624983  5.345196125312606  9.696101047169192  57.94259756488824  22.402070096830933  9.812646656200085  -8.207793691965904  69.51559072496543  4.893566686046049  13.534691571104279  120.000000
5.4156200000000005  0.000000  0.000000  0.000000  -26.253157153478963  5.398173747084392  10.694079204829066  58.27289515195912  21.363147179116563  9.128250410617882  -8.114008603587832  69.86845864156582  4.517667014990647  13.593263959410013  120.000000
5.46924  0.000000  0.000000  0.000000  -26.146991915396246  5.415610132897616  11.114788929636982  58.774885843395026  20.242137381661546  8.351010716536972  -8.136541908844078  70.17413987502505  4.289309139347863  13.462751733007252  120.000000
5.52286  0.000000  0.000000  0.000000  -25.863417942551877  5.381720054221439  10.941544547548792  59.423622800061395  19.030221121543146  7.553041187882681  -8.284280284565822  70.38400863640206  4.19792090900322  13.201156414111205  120.000000
5.57648  0.000000  0.000000  0.000000  -25.41127538364312  5.269719730258537  10.174862253761683  60.17721058411366  17.727567298170474  6.837916844036118  -8.560801982424463  70.44419636902003  4.23022489061341  12.892918098739807  120.000000
5.6301000000000005  0.000000  0.000000  0.000000  -24.812698762499682  5.05075672424697  8.830987698933903  60.97894771551669  16.35217547418914  6.320826625328347  -8.960883882087975  70.30354708597307  4.391011434221871  12.616492437060874  120.000000
5.68372  0.000000  0.000000  0.000000  -24.101937449964655  4.703336520397092  6.944018670304205  61.76318184611203  14.94664685794818  6.105381662370357  -9.468936645653343  69.91888084663296  4.714624554825468  12.418724682521306  120.000000
5.73734  0.000000  0.000000  0.000000  -23.319940872554163  4.2201550738342295  4.572908219246952  62.46507698293913  13.577575008486734  6.261537855834596  -10.06017706357279  69.25060489633412  5.260039446200493  12.307445516117756  120.000000
5.79096  0.000000  0.000000  0.000000  -22.50442533066823  3.6125529795300624  1.8106514754677252  63.03120265728519  12.32292221756317  6.808288251343615  -10.702594339898315  68.2508178080543  6.090601402796382  12.262911069384959  120.000000
5.8445800000000006  0.000000  0.000000  0.000000  -21.681264224938868  2.9123517416408604  -1.212519644252075  63.42494792193432  11.257147488114551  7.7056618095504525  -11.358121104429939  66.85147193863685  7.250878359939364  12.25570161302311  120.000000
5.8982  0.000000  0.000000  0.000000  -20.861737620509057  2.1723214124350556  -4.341865482101399  63.623069852844694  10.44685181930228  8.859778531901185  -11.983385483614326  64.96501009652567  8.750919481117716  12.258714398487335  120.000000
5.95182  0.000000  0.000000  0.000000  -20.051657235450907  1.465095582658473  -7.423433620033278  63.609053321785964  9.957906511050291  10.141080432139853  -12.52729052916122  62.505102096210535  10.563996185135458  12.252219834244825  120.000000
6.00544  0.000000  0.000000  0.000000  -19.267396726953482  0.8739871452970194  -10.33465765537353  63.36809681621807  9.85833886267229  11.411041046229887  -12.926806671436273  59.42146313502002  12.635276976011621  12.223276582344784  120.000000
6.059060000000001  0.000000  0.000000  0.000000  -18.553541977333495  0.4679317193840697  -12.998951573404732  62.88767993808164  10.203342051539805  12.554072248062484  -13.100175906606413  55.72864312937356  14.891958452279928  12.167513560424904  120.000000
6.11268  0.000000  0.000000  0.000000  -17.988229438996168  0.2767614317983934  -15.380158998277855  62.16755496398219  11.005240776390854  13.496566252654514  -12.947640215963006  51.51070509074132  17.247993296867193  12.093564452610861  120.000000
6.1663  0.000000  0.000000  0.000000  -17.659035759715664  0.28469295290187824  -17.445515038464315  61.23178263307522  12.19472804680871  14.19445972051372  -12.380853866749321  46.89875525212753  19.615831483909506  12.020842579682098  120.000000
6.21992  0.000000  0.000000  0.000000  -17.62101643366138  0.4433281859102301  -19.13392655853205  60.13371964607094  13.62535268545005  14.626626744048977  -11.359222628095916  42.04534996091124  21.92443546844939  11.975124151109034  120.000000
6.273540000000001  0.000000  0.000000  0.000000  -17.85768490816354  0.6923099250163142  -20.37700009067162  58.955859932912176  15.134349516344436  14.80230743717109  -9.89571015980685  37.11056561042826  24.124898309382797  11.98901023326681  120.000000
6.32716  0.000000  0.000000  0.000000  -18.290778150087558  0.9770245553007135  -21.13537322837453  57.802243602008964  16.592286411676817  14.754158492583281  -8.04368085251772  32.2529635860092  26.183940149018063  12.101150157048258  120.000000
6.38078  0.000000  0.000000  0.000000  -18.824538032963495  1.2588791102081665  -21.411448328218643  56.77347654626197  17.910555241830014  14.523057313795773  -5.899207008354577  27.617854884530068  28.090211670022644  12.347419124949823  120.000000
